<svg id="Group_4" data-name="Group 4" xmlns="http://www.w3.org/2000/svg" viewBox="-1.532 359.979 1924.737 341.892">
  <defs>
    <style>
      .cls-1 {
        fill: none;
        stroke: #ff3c3c;
        stroke-width: 10px;
      }
    </style>
  </defs>
  <path id="Path_1" data-name="Path 1" class="cls-1" d="M0,371.883S139.9,326.845,267.122,328s267.122,43.885,267.122,43.885S632.538,425.057,751.28,424C870.959,432.311,920,379.888,985.011,371.883s4.07-8.023,232.784-8.291,268.773,14.389,320.092,29.209S1642.64,426.99,1719.6,424c144.424-3.845,200.341-52.114,200.341-52.114" transform="translate(0 184.004)"/>
  <path id="Path_2" data-name="Path 2" class="cls-1" d="M0,371.883S139.9,326.845,267.122,328s267.122,43.885,267.122,43.885S632.538,425.057,751.28,424C870.959,432.311,920,379.888,985.011,371.883s4.07-8.023,232.784-8.291,268.773,14.389,320.092,29.209S1642.64,426.99,1719.6,424c144.424-3.845,200.341-52.114,200.341-52.114" transform="translate(0 116.004)"/>
  <path id="Path_3" data-name="Path 3" class="cls-1" d="M0,371.883S139.9,326.845,267.122,328s267.122,43.885,267.122,43.885S632.538,425.057,751.28,424C870.959,432.311,920,379.888,985.011,371.883s4.07-8.023,232.784-8.291,268.773,14.389,320.092,29.209c33.87,9.781,68.662,21.544,110.695,27.575A389.514,389.514,0,0,0,1719.6,424c144.424-3.845,200.341-52.114,200.341-52.114" transform="translate(0 116.004)"/>
  <path id="Path_4" data-name="Path 4" class="cls-1" d="M0,371.883S139.9,326.845,267.122,328s267.122,43.885,267.122,43.885S632.538,425.057,751.28,424C870.959,432.311,920,379.888,985.011,371.883s4.07-8.023,232.784-8.291,268.773,14.389,320.092,29.209c33.87,9.781,68.662,21.544,110.695,27.575A389.514,389.514,0,0,0,1719.6,424c144.424-3.845,200.341-52.114,200.341-52.114" transform="translate(0 37.004)"/>
  <path id="Path_5" data-name="Path 5" class="cls-1" d="M0,371.883S139.9,326.845,267.122,328s267.122,43.885,267.122,43.885S632.538,425.057,751.28,424C870.959,432.311,920,379.888,985.011,371.883s4.07-8.023,232.784-8.291,268.773,14.389,320.092,29.209c33.87,9.781,68.662,21.544,110.695,27.575A389.514,389.514,0,0,0,1719.6,424c144.424-3.845,200.341-52.114,200.341-52.114" transform="translate(0 272.004)"/>
</svg>
