<svg id="Group_5" data-name="Group 5" xmlns="http://www.w3.org/2000/svg" viewBox="204 132 1512 912">
  <defs>
    <style>
      .cls-1 {
        fill: #fff;
      }
    </style>
  </defs>
  <circle id="Ellipse_10" data-name="Ellipse 10" class="cls-1" cx="17" cy="17" r="17" transform="translate(204 182)"/>
  <circle id="Ellipse_11" data-name="Ellipse 11" class="cls-1" cx="11" cy="11" r="11" transform="translate(491 570)"/>
  <circle id="Ellipse_12" data-name="Ellipse 12" class="cls-1" cx="11" cy="11" r="11" transform="translate(1226 138)"/>
  <circle id="Ellipse_13" data-name="Ellipse 13" class="cls-1" cx="11" cy="11" r="11" transform="translate(1267 205)"/>
  <circle id="Ellipse_14" data-name="Ellipse 14" class="cls-1" cx="11" cy="11" r="11" transform="translate(781 959)"/>
  <circle id="Ellipse_15" data-name="Ellipse 15" class="cls-1" cx="17" cy="17" r="17" transform="translate(1451 601)"/>
  <circle id="Ellipse_16" data-name="Ellipse 16" class="cls-1" cx="17" cy="17" r="17" transform="translate(280 872)"/>
  <circle id="Ellipse_17" data-name="Ellipse 17" class="cls-1" cx="17" cy="17" r="17" transform="translate(781 1010)"/>
  <circle id="Ellipse_18" data-name="Ellipse 18" class="cls-1" cx="11" cy="11" r="11" transform="matrix(0.407, -0.914, 0.914, 0.407, 649.035, 1032.177)"/>
  <circle id="Ellipse_19" data-name="Ellipse 19" class="cls-1" cx="11" cy="11" r="11" transform="matrix(0.407, -0.914, 0.914, 0.407, 634.919, 896.973)"/>
  <circle id="Ellipse_20" data-name="Ellipse 20" class="cls-1" cx="11" cy="11" r="11" transform="translate(1694 540)"/>
  <circle id="Ellipse_21" data-name="Ellipse 21" class="cls-1" cx="11" cy="11" r="11" transform="matrix(0.407, -0.914, 0.914, 0.407, 1519.035, 764.177)"/>
  <circle id="Ellipse_22" data-name="Ellipse 22" class="cls-1" cx="11" cy="11" r="11" transform="matrix(0.407, -0.914, 0.914, 0.407, 1547.919, 477.973)"/>
  <circle id="Ellipse_23" data-name="Ellipse 23" class="cls-1" cx="17" cy="17" r="17" transform="translate(647 132)"/>
</svg>
