<svg xmlns="http://www.w3.org/2000/svg" xmlns:xlink="http://www.w3.org/1999/xlink" viewBox="614.433 192.524 633.134 694.952">
  <defs>
    <style>
      .cls-1 {
        stroke: #707070;
        fill: url(#radial-gradient);
      }

      .cls-2, .cls-3, .cls-5 {
        fill: none;
      }

      .cls-2, .cls-3 {
        stroke: #fff;
      }

      .cls-2 {
        stroke-width: 8px;
      }

      .cls-3 {
        stroke-width: 3px;
      }

      .cls-4 {
        stroke: none;
      }
    </style>
    <radialGradient id="radial-gradient" cx="0.5" cy="0.5" r="0.5" gradientUnits="objectBoundingBox">
      <stop offset="0" stop-color="#43e2ff"/>
      <stop offset="0" stop-color="#f94863"/>
      <stop offset="1" stop-color="#3c5ce3"/>
    </radialGradient>
  </defs>
  <g id="Group_3" data-name="Group 3" transform="translate(-84.135 -68.625)">
    <g id="Ellipse_9" data-name="Ellipse 9" class="cls-1" transform="translate(874.957 468.447)">
      <circle class="cls-4" cx="140.178" cy="140.178" r="140.178"/>
      <circle class="cls-5" cx="140.178" cy="140.178" r="139.678"/>
    </g>
    <g id="Group_1" data-name="Group 1" transform="translate(698.568 261.149)">
      <g id="Ellipse_1" data-name="Ellipse 1" class="cls-2" transform="translate(32.707 63.616)">
        <circle class="cls-4" cx="283.86" cy="283.86" r="283.86"/>
        <circle class="cls-5" cx="283.86" cy="283.86" r="279.86"/>
      </g>
      <g id="Ellipse_2" data-name="Ellipse 2" class="cls-3" transform="translate(32.707 124.359)">
        <ellipse class="cls-4" cx="283.86" cy="223.116" rx="283.86" ry="223.116"/>
        <ellipse class="cls-5" cx="283.86" cy="223.116" rx="282.36" ry="221.616"/>
      </g>
      <g id="Ellipse_3" data-name="Ellipse 3" class="cls-3" transform="translate(32.707 185.103)">
        <ellipse class="cls-4" cx="283.86" cy="162.373" rx="283.86" ry="162.373"/>
        <ellipse class="cls-5" cx="283.86" cy="162.373" rx="282.36" ry="160.873"/>
      </g>
      <g id="Ellipse_4" data-name="Ellipse 4" class="cls-3" transform="matrix(0.809, -0.588, 0.588, 0.809, 34.049, 441.556)">
        <ellipse class="cls-4" cx="283.86" cy="89.947" rx="283.86" ry="89.947"/>
        <ellipse class="cls-5" cx="283.86" cy="89.947" rx="282.36" ry="88.447"/>
      </g>
      <g id="Ellipse_5" data-name="Ellipse 5" class="cls-3" transform="translate(32.707 311.263)">
        <ellipse class="cls-4" cx="283.86" cy="36.213" rx="283.86" ry="36.213"/>
        <ellipse class="cls-5" cx="283.86" cy="36.213" rx="282.36" ry="34.713"/>
      </g>
      <g id="Ellipse_6" data-name="Ellipse 6" class="cls-3" transform="translate(0 164.939) rotate(-21)">
        <ellipse class="cls-4" cx="230.125" cy="283.86" rx="230.125" ry="283.86"/>
        <ellipse class="cls-5" cx="230.125" cy="283.86" rx="228.625" ry="282.36"/>
      </g>
      <g id="Ellipse_7" data-name="Ellipse 7" class="cls-3" transform="matrix(0.809, -0.588, 0.588, 0.809, 29.696, 205.029)">
        <ellipse class="cls-4" cx="148.355" cy="283.86" rx="148.355" ry="283.86"/>
        <ellipse class="cls-5" cx="148.355" cy="283.86" rx="146.855" ry="282.36"/>
      </g>
    </g>
  </g>
</svg>
