<svg xmlns="http://www.w3.org/2000/svg" viewBox="0 0 202 269"><defs><style>.cls-1{fill:#fcfcfc;}.cls-2{fill:#2d5142;}.cls-3{fill:#ffb41d;}.cls-4{fill:#2fad8f;}.cls-5{fill:#f3fffc;}</style></defs><title>Asset 1</title><g id="Layer_2" data-name="Layer 2"><g id="Layer_1-2" data-name="Layer 1"><polygon class="cls-1" points="36.4 53.7 28.4 56.2 40.9 96 50.1 96 36.4 53.7"/><path class="cls-1" d="M69,154.6c-3.7-1.9-7.7-4.2-11.8-6.7l19.8,63,16.6-5.2-.4-1.4L86,207Z"/><path class="cls-2" d="M102,167s-9-1.5-23-7.7l14.1,44.9L190,167l-43-42Z"/><path class="cls-2" d="M59.1,96h58.2l-1-1H113c0-1.1,0-2.1.1-3.1L19,0,36.4,53.7,45,51Z"/><polygon class="cls-2" points="59.1 96 45 51 36.4 53.7 50.1 96 59.1 96"/><path class="cls-2" d="M69,154.6,86,207l7.1-2.7L79,159.3C75.9,158,72.6,156.4,69,154.6Z"/><circle class="cls-3" cx="144" cy="255" r="14"/><path class="cls-4" d="M0,96c19.6,24.9,39.9,41.2,57.2,51.8L40.9,96Z"/><polygon class="cls-4" points="178 96 117.3 96 147 125 178 96"/><path class="cls-4" d="M50.1,96H41l16.3,51.8c4,2.6,8,4.8,11.7,6.8Z"/><path class="cls-4" d="M79,159.3c14,6.2,23,7.7,23,7.7l45-42L117.3,96H59.1ZM85.5,110A14.5,14.5,0,1,1,71,124.5,14.51,14.51,0,0,1,85.5,110Z"/><path class="cls-4" d="M50.1,96,69,154.6c3.6,1.8,6.9,3.4,10,4.7L59.1,96Z"/><circle class="cls-5" cx="85.5" cy="124.5" r="14.5"/><path class="cls-3" d="M202,95c0-35.9-19.9-65-44.5-65-23.9,0-43.3,27.4-44.4,61.9l3.2,3.1Z"/><path class="cls-3" d="M116.3,95l-3.2-3.1c0,1-.1,2.1-.1,3.1Z"/></g></g></svg>