<svg id="Group_6" data-name="Group 6" xmlns="http://www.w3.org/2000/svg" xmlns:xlink="http://www.w3.org/1999/xlink" viewBox="-1.532 132 1924.737 912">
  <defs>
    <style>
      .cls-1 {
        stroke: #707070;
        fill: url(#radial-gradient);
      }

      .cls-2, .cls-3, .cls-5, .cls-7 {
        fill: none;
      }

      .cls-2, .cls-3 {
        stroke: #fff;
      }

      .cls-2 {
        stroke-width: 8px;
      }

      .cls-3 {
        stroke-width: 3px;
      }

      .cls-4 {
        fill: #fff;
      }

      .cls-5 {
        stroke: #ff3c3c;
        stroke-width: 10px;
      }

      .cls-6 {
        stroke: none;
      }
    </style>
    <radialGradient id="radial-gradient" cx="0.5" cy="0.5" r="0.5" gradientUnits="objectBoundingBox">
      <stop offset="0" stop-color="#43e2ff"/>
      <stop offset="0" stop-color="#f94863"/>
      <stop offset="1" stop-color="#3c5ce3"/>
    </radialGradient>
  </defs>
  <g id="Group_3" data-name="Group 3" transform="translate(-84.135 -68.625)">
    <g id="Ellipse_9" data-name="Ellipse 9" class="cls-1" transform="translate(874.957 468.447)">
      <circle class="cls-6" cx="140.178" cy="140.178" r="140.178"/>
      <circle class="cls-7" cx="140.178" cy="140.178" r="139.678"/>
    </g>
    <g id="Group_1" data-name="Group 1" transform="translate(698.568 261.149)">
      <g id="Ellipse_1" data-name="Ellipse 1" class="cls-2" transform="translate(32.707 63.616)">
        <circle class="cls-6" cx="283.86" cy="283.86" r="283.86"/>
        <circle class="cls-7" cx="283.86" cy="283.86" r="279.86"/>
      </g>
      <g id="Ellipse_2" data-name="Ellipse 2" class="cls-3" transform="translate(32.707 124.359)">
        <ellipse class="cls-6" cx="283.86" cy="223.116" rx="283.86" ry="223.116"/>
        <ellipse class="cls-7" cx="283.86" cy="223.116" rx="282.36" ry="221.616"/>
      </g>
      <g id="Ellipse_3" data-name="Ellipse 3" class="cls-3" transform="translate(32.707 185.103)">
        <ellipse class="cls-6" cx="283.86" cy="162.373" rx="283.86" ry="162.373"/>
        <ellipse class="cls-7" cx="283.86" cy="162.373" rx="282.36" ry="160.873"/>
      </g>
      <g id="Ellipse_4" data-name="Ellipse 4" class="cls-3" transform="matrix(0.809, -0.588, 0.588, 0.809, 34.049, 441.556)">
        <ellipse class="cls-6" cx="283.86" cy="89.947" rx="283.86" ry="89.947"/>
        <ellipse class="cls-7" cx="283.86" cy="89.947" rx="282.36" ry="88.447"/>
      </g>
      <g id="Ellipse_5" data-name="Ellipse 5" class="cls-3" transform="translate(32.707 311.263)">
        <ellipse class="cls-6" cx="283.86" cy="36.213" rx="283.86" ry="36.213"/>
        <ellipse class="cls-7" cx="283.86" cy="36.213" rx="282.36" ry="34.713"/>
      </g>
      <g id="Ellipse_6" data-name="Ellipse 6" class="cls-3" transform="translate(0 164.939) rotate(-21)">
        <ellipse class="cls-6" cx="230.125" cy="283.86" rx="230.125" ry="283.86"/>
        <ellipse class="cls-7" cx="230.125" cy="283.86" rx="228.625" ry="282.36"/>
      </g>
      <g id="Ellipse_7" data-name="Ellipse 7" class="cls-3" transform="matrix(0.809, -0.588, 0.588, 0.809, 29.696, 205.029)">
        <ellipse class="cls-6" cx="148.355" cy="283.86" rx="148.355" ry="283.86"/>
        <ellipse class="cls-7" cx="148.355" cy="283.86" rx="146.855" ry="282.36"/>
      </g>
    </g>
  </g>
  <g id="Group_5" data-name="Group 5">
    <circle id="Ellipse_10" data-name="Ellipse 10" class="cls-4" cx="17" cy="17" r="17" transform="translate(204 182)"/>
    <circle id="Ellipse_11" data-name="Ellipse 11" class="cls-4" cx="11" cy="11" r="11" transform="translate(491 570)"/>
    <circle id="Ellipse_12" data-name="Ellipse 12" class="cls-4" cx="11" cy="11" r="11" transform="translate(1226 138)"/>
    <circle id="Ellipse_13" data-name="Ellipse 13" class="cls-4" cx="11" cy="11" r="11" transform="translate(1267 205)"/>
    <circle id="Ellipse_14" data-name="Ellipse 14" class="cls-4" cx="11" cy="11" r="11" transform="translate(781 959)"/>
    <circle id="Ellipse_15" data-name="Ellipse 15" class="cls-4" cx="17" cy="17" r="17" transform="translate(1451 601)"/>
    <circle id="Ellipse_16" data-name="Ellipse 16" class="cls-4" cx="17" cy="17" r="17" transform="translate(280 872)"/>
    <circle id="Ellipse_17" data-name="Ellipse 17" class="cls-4" cx="17" cy="17" r="17" transform="translate(781 1010)"/>
    <circle id="Ellipse_18" data-name="Ellipse 18" class="cls-4" cx="11" cy="11" r="11" transform="matrix(0.407, -0.914, 0.914, 0.407, 649.035, 1032.177)"/>
    <circle id="Ellipse_19" data-name="Ellipse 19" class="cls-4" cx="11" cy="11" r="11" transform="matrix(0.407, -0.914, 0.914, 0.407, 634.919, 896.973)"/>
    <circle id="Ellipse_20" data-name="Ellipse 20" class="cls-4" cx="11" cy="11" r="11" transform="translate(1694 540)"/>
    <circle id="Ellipse_21" data-name="Ellipse 21" class="cls-4" cx="11" cy="11" r="11" transform="matrix(0.407, -0.914, 0.914, 0.407, 1519.035, 764.177)"/>
    <circle id="Ellipse_22" data-name="Ellipse 22" class="cls-4" cx="11" cy="11" r="11" transform="matrix(0.407, -0.914, 0.914, 0.407, 1547.919, 477.973)"/>
    <circle id="Ellipse_23" data-name="Ellipse 23" class="cls-4" cx="17" cy="17" r="17" transform="translate(647 132)"/>
  </g>
  <g id="Group_4" data-name="Group 4">
    <path id="Path_1" data-name="Path 1" class="cls-5" d="M0,371.883S139.9,326.845,267.122,328s267.122,43.885,267.122,43.885S632.538,425.057,751.28,424C870.959,432.311,920,379.888,985.011,371.883s4.07-8.023,232.784-8.291,268.773,14.389,320.092,29.209S1642.64,426.99,1719.6,424c144.424-3.845,200.341-52.114,200.341-52.114" transform="translate(0 184.004)"/>
    <path id="Path_2" data-name="Path 2" class="cls-5" d="M0,371.883S139.9,326.845,267.122,328s267.122,43.885,267.122,43.885S632.538,425.057,751.28,424C870.959,432.311,920,379.888,985.011,371.883s4.07-8.023,232.784-8.291,268.773,14.389,320.092,29.209S1642.64,426.99,1719.6,424c144.424-3.845,200.341-52.114,200.341-52.114" transform="translate(0 116.004)"/>
    <path id="Path_3" data-name="Path 3" class="cls-5" d="M0,371.883S139.9,326.845,267.122,328s267.122,43.885,267.122,43.885S632.538,425.057,751.28,424C870.959,432.311,920,379.888,985.011,371.883s4.07-8.023,232.784-8.291,268.773,14.389,320.092,29.209c33.87,9.781,68.662,21.544,110.695,27.575A389.514,389.514,0,0,0,1719.6,424c144.424-3.845,200.341-52.114,200.341-52.114" transform="translate(0 116.004)"/>
    <path id="Path_4" data-name="Path 4" class="cls-5" d="M0,371.883S139.9,326.845,267.122,328s267.122,43.885,267.122,43.885S632.538,425.057,751.28,424C870.959,432.311,920,379.888,985.011,371.883s4.07-8.023,232.784-8.291,268.773,14.389,320.092,29.209c33.87,9.781,68.662,21.544,110.695,27.575A389.514,389.514,0,0,0,1719.6,424c144.424-3.845,200.341-52.114,200.341-52.114" transform="translate(0 37.004)"/>
    <path id="Path_5" data-name="Path 5" class="cls-5" d="M0,371.883S139.9,326.845,267.122,328s267.122,43.885,267.122,43.885S632.538,425.057,751.28,424C870.959,432.311,920,379.888,985.011,371.883s4.07-8.023,232.784-8.291,268.773,14.389,320.092,29.209c33.87,9.781,68.662,21.544,110.695,27.575A389.514,389.514,0,0,0,1719.6,424c144.424-3.845,200.341-52.114,200.341-52.114" transform="translate(0 272.004)"/>
  </g>
</svg>
